<svg xmlns="http://www.w3.org/2000/svg" xmlns:xlink="http://www.w3.org/1999/xlink" width="500" zoomAndPan="magnify" viewBox="0 0 375 374.999991" height="500" preserveAspectRatio="xMidYMid meet" version="1.0"><defs><g/><linearGradient x1="0" gradientTransform="matrix(0.75, 0, 0, 0.75, 0.0000045, 0)" y1="250" x2="499.999979" gradientUnits="userSpaceOnUse" y2="250" id="ce9a370186"><stop stop-opacity="1" stop-color="rgb(54.899597%, 32.199097%, 100%)" offset="0"/><stop stop-opacity="1" stop-color="rgb(55.075073%, 32.295227%, 99.726868%)" offset="0.00390625"/><stop stop-opacity="1" stop-color="rgb(55.252075%, 32.392883%, 99.453735%)" offset="0.0078125"/><stop stop-opacity="1" stop-color="rgb(55.427551%, 32.489014%, 99.180603%)" offset="0.0117187"/><stop stop-opacity="1" stop-color="rgb(55.604553%, 32.585144%, 98.908997%)" offset="0.015625"/><stop stop-opacity="1" stop-color="rgb(55.780029%, 32.681274%, 98.635864%)" offset="0.0195312"/><stop stop-opacity="1" stop-color="rgb(55.955505%, 32.777405%, 98.362732%)" offset="0.0234375"/><stop stop-opacity="1" stop-color="rgb(56.130981%, 32.873535%, 98.0896%)" offset="0.0273438"/><stop stop-opacity="1" stop-color="rgb(56.307983%, 32.971191%, 97.817993%)" offset="0.03125"/><stop stop-opacity="1" stop-color="rgb(56.483459%, 33.067322%, 97.544861%)" offset="0.0351562"/><stop stop-opacity="1" stop-color="rgb(56.660461%, 33.163452%, 97.273254%)" offset="0.0390625"/><stop stop-opacity="1" stop-color="rgb(56.835938%, 33.259583%, 97.000122%)" offset="0.0429687"/><stop stop-opacity="1" stop-color="rgb(57.012939%, 33.357239%, 96.72699%)" offset="0.046875"/><stop stop-opacity="1" stop-color="rgb(57.188416%, 33.453369%, 96.453857%)" offset="0.0507812"/><stop stop-opacity="1" stop-color="rgb(57.365417%, 33.5495%, 96.182251%)" offset="0.0546875"/><stop stop-opacity="1" stop-color="rgb(57.540894%, 33.64563%, 95.909119%)" offset="0.0585938"/><stop stop-opacity="1" stop-color="rgb(57.717896%, 33.743286%, 95.635986%)" offset="0.0625"/><stop stop-opacity="1" stop-color="rgb(57.893372%, 33.839417%, 95.362854%)" offset="0.0664062"/><stop stop-opacity="1" stop-color="rgb(58.070374%, 33.935547%, 95.091248%)" offset="0.0703125"/><stop stop-opacity="1" stop-color="rgb(58.24585%, 34.031677%, 94.818115%)" offset="0.0742187"/><stop stop-opacity="1" stop-color="rgb(58.422852%, 34.129333%, 94.546509%)" offset="0.078125"/><stop stop-opacity="1" stop-color="rgb(58.598328%, 34.225464%, 94.273376%)" offset="0.0820312"/><stop stop-opacity="1" stop-color="rgb(58.77533%, 34.321594%, 94.000244%)" offset="0.0859375"/><stop stop-opacity="1" stop-color="rgb(58.950806%, 34.417725%, 93.727112%)" offset="0.0898437"/><stop stop-opacity="1" stop-color="rgb(59.127808%, 34.515381%, 93.455505%)" offset="0.09375"/><stop stop-opacity="1" stop-color="rgb(59.303284%, 34.611511%, 93.182373%)" offset="0.0976562"/><stop stop-opacity="1" stop-color="rgb(59.480286%, 34.707642%, 92.910767%)" offset="0.101562"/><stop stop-opacity="1" stop-color="rgb(59.655762%, 34.803772%, 92.637634%)" offset="0.105469"/><stop stop-opacity="1" stop-color="rgb(59.832764%, 34.901428%, 92.364502%)" offset="0.109375"/><stop stop-opacity="1" stop-color="rgb(60.00824%, 34.997559%, 92.09137%)" offset="0.113281"/><stop stop-opacity="1" stop-color="rgb(60.183716%, 35.093689%, 91.819763%)" offset="0.117188"/><stop stop-opacity="1" stop-color="rgb(60.359192%, 35.189819%, 91.546631%)" offset="0.121094"/><stop stop-opacity="1" stop-color="rgb(60.536194%, 35.287476%, 91.273499%)" offset="0.125"/><stop stop-opacity="1" stop-color="rgb(60.71167%, 35.383606%, 91.000366%)" offset="0.128906"/><stop stop-opacity="1" stop-color="rgb(60.888672%, 35.479736%, 90.72876%)" offset="0.132812"/><stop stop-opacity="1" stop-color="rgb(61.064148%, 35.575867%, 90.455627%)" offset="0.136719"/><stop stop-opacity="1" stop-color="rgb(61.24115%, 35.671997%, 90.184021%)" offset="0.140625"/><stop stop-opacity="1" stop-color="rgb(61.416626%, 35.768127%, 89.910889%)" offset="0.144531"/><stop stop-opacity="1" stop-color="rgb(61.593628%, 35.865784%, 89.637756%)" offset="0.148437"/><stop stop-opacity="1" stop-color="rgb(61.769104%, 35.961914%, 89.364624%)" offset="0.152344"/><stop stop-opacity="1" stop-color="rgb(61.946106%, 36.058044%, 89.093018%)" offset="0.15625"/><stop stop-opacity="1" stop-color="rgb(62.121582%, 36.154175%, 88.819885%)" offset="0.160156"/><stop stop-opacity="1" stop-color="rgb(62.298584%, 36.251831%, 88.548279%)" offset="0.164062"/><stop stop-opacity="1" stop-color="rgb(62.47406%, 36.347961%, 88.275146%)" offset="0.167969"/><stop stop-opacity="1" stop-color="rgb(62.651062%, 36.444092%, 88.002014%)" offset="0.171875"/><stop stop-opacity="1" stop-color="rgb(62.826538%, 36.540222%, 87.728882%)" offset="0.175781"/><stop stop-opacity="1" stop-color="rgb(63.00354%, 36.637878%, 87.457275%)" offset="0.179687"/><stop stop-opacity="1" stop-color="rgb(63.179016%, 36.734009%, 87.184143%)" offset="0.183594"/><stop stop-opacity="1" stop-color="rgb(63.356018%, 36.830139%, 86.911011%)" offset="0.1875"/><stop stop-opacity="1" stop-color="rgb(63.531494%, 36.92627%, 86.637878%)" offset="0.191406"/><stop stop-opacity="1" stop-color="rgb(63.708496%, 37.023926%, 86.366272%)" offset="0.195312"/><stop stop-opacity="1" stop-color="rgb(63.883972%, 37.120056%, 86.09314%)" offset="0.199219"/><stop stop-opacity="1" stop-color="rgb(64.059448%, 37.216187%, 85.821533%)" offset="0.203125"/><stop stop-opacity="1" stop-color="rgb(64.234924%, 37.312317%, 85.548401%)" offset="0.207031"/><stop stop-opacity="1" stop-color="rgb(64.411926%, 37.409973%, 85.275269%)" offset="0.210938"/><stop stop-opacity="1" stop-color="rgb(64.587402%, 37.506104%, 85.002136%)" offset="0.214844"/><stop stop-opacity="1" stop-color="rgb(64.764404%, 37.602234%, 84.73053%)" offset="0.21875"/><stop stop-opacity="1" stop-color="rgb(64.93988%, 37.698364%, 84.457397%)" offset="0.222656"/><stop stop-opacity="1" stop-color="rgb(65.116882%, 37.796021%, 84.185791%)" offset="0.226562"/><stop stop-opacity="1" stop-color="rgb(65.292358%, 37.892151%, 83.912659%)" offset="0.230469"/><stop stop-opacity="1" stop-color="rgb(65.46936%, 37.988281%, 83.639526%)" offset="0.234375"/><stop stop-opacity="1" stop-color="rgb(65.644836%, 38.084412%, 83.366394%)" offset="0.238281"/><stop stop-opacity="1" stop-color="rgb(65.821838%, 38.180542%, 83.094788%)" offset="0.242188"/><stop stop-opacity="1" stop-color="rgb(65.997314%, 38.276672%, 82.821655%)" offset="0.246094"/><stop stop-opacity="1" stop-color="rgb(66.174316%, 38.374329%, 82.548523%)" offset="0.25"/><stop stop-opacity="1" stop-color="rgb(66.349792%, 38.470459%, 82.275391%)" offset="0.253906"/><stop stop-opacity="1" stop-color="rgb(66.526794%, 38.566589%, 82.003784%)" offset="0.257812"/><stop stop-opacity="1" stop-color="rgb(66.702271%, 38.66272%, 81.730652%)" offset="0.261719"/><stop stop-opacity="1" stop-color="rgb(66.879272%, 38.760376%, 81.459045%)" offset="0.265625"/><stop stop-opacity="1" stop-color="rgb(67.054749%, 38.856506%, 81.185913%)" offset="0.269531"/><stop stop-opacity="1" stop-color="rgb(67.23175%, 38.952637%, 80.912781%)" offset="0.273437"/><stop stop-opacity="1" stop-color="rgb(67.407227%, 39.048767%, 80.639648%)" offset="0.277344"/><stop stop-opacity="1" stop-color="rgb(67.584229%, 39.146423%, 80.368042%)" offset="0.28125"/><stop stop-opacity="1" stop-color="rgb(67.759705%, 39.242554%, 80.09491%)" offset="0.285156"/><stop stop-opacity="1" stop-color="rgb(67.936707%, 39.338684%, 79.823303%)" offset="0.289062"/><stop stop-opacity="1" stop-color="rgb(68.112183%, 39.434814%, 79.550171%)" offset="0.292969"/><stop stop-opacity="1" stop-color="rgb(68.287659%, 39.532471%, 79.277039%)" offset="0.296875"/><stop stop-opacity="1" stop-color="rgb(68.463135%, 39.628601%, 79.003906%)" offset="0.300781"/><stop stop-opacity="1" stop-color="rgb(68.640137%, 39.724731%, 78.7323%)" offset="0.304687"/><stop stop-opacity="1" stop-color="rgb(68.815613%, 39.820862%, 78.459167%)" offset="0.308594"/><stop stop-opacity="1" stop-color="rgb(68.992615%, 39.918518%, 78.186035%)" offset="0.3125"/><stop stop-opacity="1" stop-color="rgb(69.168091%, 40.014648%, 77.912903%)" offset="0.316406"/><stop stop-opacity="1" stop-color="rgb(69.345093%, 40.110779%, 77.641296%)" offset="0.320312"/><stop stop-opacity="1" stop-color="rgb(69.520569%, 40.206909%, 77.368164%)" offset="0.324219"/><stop stop-opacity="1" stop-color="rgb(69.697571%, 40.304565%, 77.096558%)" offset="0.328125"/><stop stop-opacity="1" stop-color="rgb(69.873047%, 40.400696%, 76.823425%)" offset="0.332031"/><stop stop-opacity="1" stop-color="rgb(70.050049%, 40.496826%, 76.550293%)" offset="0.335937"/><stop stop-opacity="1" stop-color="rgb(70.225525%, 40.592957%, 76.277161%)" offset="0.339844"/><stop stop-opacity="1" stop-color="rgb(70.402527%, 40.690613%, 76.005554%)" offset="0.34375"/><stop stop-opacity="1" stop-color="rgb(70.578003%, 40.786743%, 75.732422%)" offset="0.347656"/><stop stop-opacity="1" stop-color="rgb(70.755005%, 40.882874%, 75.460815%)" offset="0.351562"/><stop stop-opacity="1" stop-color="rgb(70.930481%, 40.979004%, 75.187683%)" offset="0.355469"/><stop stop-opacity="1" stop-color="rgb(71.107483%, 41.075134%, 74.914551%)" offset="0.359375"/><stop stop-opacity="1" stop-color="rgb(71.282959%, 41.171265%, 74.641418%)" offset="0.363281"/><stop stop-opacity="1" stop-color="rgb(71.459961%, 41.268921%, 74.369812%)" offset="0.367187"/><stop stop-opacity="1" stop-color="rgb(71.635437%, 41.365051%, 74.09668%)" offset="0.371094"/><stop stop-opacity="1" stop-color="rgb(71.812439%, 41.461182%, 73.823547%)" offset="0.375"/><stop stop-opacity="1" stop-color="rgb(71.987915%, 41.557312%, 73.550415%)" offset="0.378906"/><stop stop-opacity="1" stop-color="rgb(72.163391%, 41.654968%, 73.278809%)" offset="0.382812"/><stop stop-opacity="1" stop-color="rgb(72.338867%, 41.751099%, 73.005676%)" offset="0.386719"/><stop stop-opacity="1" stop-color="rgb(72.515869%, 41.847229%, 72.73407%)" offset="0.390625"/><stop stop-opacity="1" stop-color="rgb(72.691345%, 41.943359%, 72.460938%)" offset="0.394531"/><stop stop-opacity="1" stop-color="rgb(72.868347%, 42.041016%, 72.187805%)" offset="0.398438"/><stop stop-opacity="1" stop-color="rgb(73.043823%, 42.137146%, 71.914673%)" offset="0.402344"/><stop stop-opacity="1" stop-color="rgb(73.220825%, 42.233276%, 71.643066%)" offset="0.40625"/><stop stop-opacity="1" stop-color="rgb(73.396301%, 42.329407%, 71.369934%)" offset="0.410156"/><stop stop-opacity="1" stop-color="rgb(73.573303%, 42.427063%, 71.098328%)" offset="0.414062"/><stop stop-opacity="1" stop-color="rgb(73.748779%, 42.523193%, 70.825195%)" offset="0.417969"/><stop stop-opacity="1" stop-color="rgb(73.925781%, 42.619324%, 70.552063%)" offset="0.421875"/><stop stop-opacity="1" stop-color="rgb(74.101257%, 42.715454%, 70.278931%)" offset="0.425781"/><stop stop-opacity="1" stop-color="rgb(74.278259%, 42.81311%, 70.007324%)" offset="0.429688"/><stop stop-opacity="1" stop-color="rgb(74.453735%, 42.909241%, 69.734192%)" offset="0.433594"/><stop stop-opacity="1" stop-color="rgb(74.630737%, 43.005371%, 69.46106%)" offset="0.4375"/><stop stop-opacity="1" stop-color="rgb(74.806213%, 43.101501%, 69.187927%)" offset="0.441406"/><stop stop-opacity="1" stop-color="rgb(74.983215%, 43.199158%, 68.916321%)" offset="0.445312"/><stop stop-opacity="1" stop-color="rgb(75.158691%, 43.295288%, 68.643188%)" offset="0.449219"/><stop stop-opacity="1" stop-color="rgb(75.335693%, 43.391418%, 68.371582%)" offset="0.453125"/><stop stop-opacity="1" stop-color="rgb(75.511169%, 43.487549%, 68.09845%)" offset="0.457031"/><stop stop-opacity="1" stop-color="rgb(75.688171%, 43.583679%, 67.825317%)" offset="0.460938"/><stop stop-opacity="1" stop-color="rgb(75.863647%, 43.67981%, 67.552185%)" offset="0.464844"/><stop stop-opacity="1" stop-color="rgb(76.039124%, 43.777466%, 67.280579%)" offset="0.46875"/><stop stop-opacity="1" stop-color="rgb(76.2146%, 43.873596%, 67.007446%)" offset="0.472656"/><stop stop-opacity="1" stop-color="rgb(76.391602%, 43.969727%, 66.73584%)" offset="0.476562"/><stop stop-opacity="1" stop-color="rgb(76.567078%, 44.065857%, 66.462708%)" offset="0.480469"/><stop stop-opacity="1" stop-color="rgb(76.74408%, 44.163513%, 66.189575%)" offset="0.484375"/><stop stop-opacity="1" stop-color="rgb(76.919556%, 44.259644%, 65.916443%)" offset="0.488281"/><stop stop-opacity="1" stop-color="rgb(77.096558%, 44.355774%, 65.644836%)" offset="0.492188"/><stop stop-opacity="1" stop-color="rgb(77.272034%, 44.451904%, 65.371704%)" offset="0.496094"/><stop stop-opacity="1" stop-color="rgb(77.449036%, 44.549561%, 65.098572%)" offset="0.5"/><stop stop-opacity="1" stop-color="rgb(77.624512%, 44.645691%, 64.825439%)" offset="0.503906"/><stop stop-opacity="1" stop-color="rgb(77.801514%, 44.741821%, 64.553833%)" offset="0.507812"/><stop stop-opacity="1" stop-color="rgb(77.97699%, 44.837952%, 64.280701%)" offset="0.511719"/><stop stop-opacity="1" stop-color="rgb(78.153992%, 44.935608%, 64.009094%)" offset="0.515625"/><stop stop-opacity="1" stop-color="rgb(78.329468%, 45.031738%, 63.735962%)" offset="0.519531"/><stop stop-opacity="1" stop-color="rgb(78.50647%, 45.127869%, 63.46283%)" offset="0.523437"/><stop stop-opacity="1" stop-color="rgb(78.681946%, 45.223999%, 63.189697%)" offset="0.527344"/><stop stop-opacity="1" stop-color="rgb(78.858948%, 45.321655%, 62.918091%)" offset="0.53125"/><stop stop-opacity="1" stop-color="rgb(79.034424%, 45.417786%, 62.644958%)" offset="0.535156"/><stop stop-opacity="1" stop-color="rgb(79.211426%, 45.513916%, 62.373352%)" offset="0.539062"/><stop stop-opacity="1" stop-color="rgb(79.386902%, 45.610046%, 62.10022%)" offset="0.542969"/><stop stop-opacity="1" stop-color="rgb(79.563904%, 45.707703%, 61.827087%)" offset="0.546875"/><stop stop-opacity="1" stop-color="rgb(79.73938%, 45.803833%, 61.553955%)" offset="0.550781"/><stop stop-opacity="1" stop-color="rgb(79.916382%, 45.899963%, 61.282349%)" offset="0.554687"/><stop stop-opacity="1" stop-color="rgb(80.091858%, 45.996094%, 61.009216%)" offset="0.558594"/><stop stop-opacity="1" stop-color="rgb(80.267334%, 46.092224%, 60.736084%)" offset="0.5625"/><stop stop-opacity="1" stop-color="rgb(80.44281%, 46.188354%, 60.462952%)" offset="0.566406"/><stop stop-opacity="1" stop-color="rgb(80.619812%, 46.286011%, 60.191345%)" offset="0.570312"/><stop stop-opacity="1" stop-color="rgb(80.795288%, 46.382141%, 59.918213%)" offset="0.574219"/><stop stop-opacity="1" stop-color="rgb(80.97229%, 46.478271%, 59.646606%)" offset="0.578125"/><stop stop-opacity="1" stop-color="rgb(81.147766%, 46.574402%, 59.373474%)" offset="0.582031"/><stop stop-opacity="1" stop-color="rgb(81.324768%, 46.672058%, 59.100342%)" offset="0.585937"/><stop stop-opacity="1" stop-color="rgb(81.500244%, 46.768188%, 58.827209%)" offset="0.589844"/><stop stop-opacity="1" stop-color="rgb(81.677246%, 46.864319%, 58.555603%)" offset="0.59375"/><stop stop-opacity="1" stop-color="rgb(81.852722%, 46.960449%, 58.282471%)" offset="0.597656"/><stop stop-opacity="1" stop-color="rgb(82.029724%, 47.058105%, 58.010864%)" offset="0.601562"/><stop stop-opacity="1" stop-color="rgb(82.2052%, 47.154236%, 57.737732%)" offset="0.605469"/><stop stop-opacity="1" stop-color="rgb(82.382202%, 47.250366%, 57.4646%)" offset="0.609375"/><stop stop-opacity="1" stop-color="rgb(82.557678%, 47.346497%, 57.191467%)" offset="0.613281"/><stop stop-opacity="1" stop-color="rgb(82.73468%, 47.444153%, 56.919861%)" offset="0.617187"/><stop stop-opacity="1" stop-color="rgb(82.910156%, 47.540283%, 56.646729%)" offset="0.621094"/><stop stop-opacity="1" stop-color="rgb(83.087158%, 47.636414%, 56.373596%)" offset="0.625"/><stop stop-opacity="1" stop-color="rgb(83.262634%, 47.732544%, 56.100464%)" offset="0.628906"/><stop stop-opacity="1" stop-color="rgb(83.439636%, 47.8302%, 55.828857%)" offset="0.632812"/><stop stop-opacity="1" stop-color="rgb(83.615112%, 47.926331%, 55.555725%)" offset="0.636719"/><stop stop-opacity="1" stop-color="rgb(83.792114%, 48.022461%, 55.284119%)" offset="0.640625"/><stop stop-opacity="1" stop-color="rgb(83.96759%, 48.118591%, 55.010986%)" offset="0.644531"/><stop stop-opacity="1" stop-color="rgb(84.143066%, 48.216248%, 54.737854%)" offset="0.648437"/><stop stop-opacity="1" stop-color="rgb(84.318542%, 48.312378%, 54.464722%)" offset="0.652344"/><stop stop-opacity="1" stop-color="rgb(84.495544%, 48.408508%, 54.193115%)" offset="0.65625"/><stop stop-opacity="1" stop-color="rgb(84.671021%, 48.504639%, 53.919983%)" offset="0.660156"/><stop stop-opacity="1" stop-color="rgb(84.848022%, 48.602295%, 53.648376%)" offset="0.664062"/><stop stop-opacity="1" stop-color="rgb(85.023499%, 48.698425%, 53.375244%)" offset="0.667969"/><stop stop-opacity="1" stop-color="rgb(85.2005%, 48.794556%, 53.102112%)" offset="0.671875"/><stop stop-opacity="1" stop-color="rgb(85.375977%, 48.890686%, 52.828979%)" offset="0.675781"/><stop stop-opacity="1" stop-color="rgb(85.552979%, 48.986816%, 52.557373%)" offset="0.679687"/><stop stop-opacity="1" stop-color="rgb(85.728455%, 49.082947%, 52.284241%)" offset="0.683594"/><stop stop-opacity="1" stop-color="rgb(85.905457%, 49.180603%, 52.011108%)" offset="0.6875"/><stop stop-opacity="1" stop-color="rgb(86.080933%, 49.276733%, 51.737976%)" offset="0.691406"/><stop stop-opacity="1" stop-color="rgb(86.257935%, 49.372864%, 51.46637%)" offset="0.695312"/><stop stop-opacity="1" stop-color="rgb(86.433411%, 49.468994%, 51.193237%)" offset="0.699219"/><stop stop-opacity="1" stop-color="rgb(86.610413%, 49.56665%, 50.921631%)" offset="0.703125"/><stop stop-opacity="1" stop-color="rgb(86.785889%, 49.662781%, 50.648499%)" offset="0.707031"/><stop stop-opacity="1" stop-color="rgb(86.962891%, 49.758911%, 50.375366%)" offset="0.710937"/><stop stop-opacity="1" stop-color="rgb(87.138367%, 49.855042%, 50.102234%)" offset="0.714844"/><stop stop-opacity="1" stop-color="rgb(87.315369%, 49.952698%, 49.830627%)" offset="0.71875"/><stop stop-opacity="1" stop-color="rgb(87.490845%, 50.048828%, 49.557495%)" offset="0.722656"/><stop stop-opacity="1" stop-color="rgb(87.667847%, 50.144958%, 49.285889%)" offset="0.726562"/><stop stop-opacity="1" stop-color="rgb(87.843323%, 50.241089%, 49.012756%)" offset="0.730469"/><stop stop-opacity="1" stop-color="rgb(88.018799%, 50.338745%, 48.739624%)" offset="0.734375"/><stop stop-opacity="1" stop-color="rgb(88.194275%, 50.434875%, 48.466492%)" offset="0.738281"/><stop stop-opacity="1" stop-color="rgb(88.371277%, 50.531006%, 48.194885%)" offset="0.742187"/><stop stop-opacity="1" stop-color="rgb(88.546753%, 50.627136%, 47.921753%)" offset="0.746094"/><stop stop-opacity="1" stop-color="rgb(88.723755%, 50.724792%, 47.648621%)" offset="0.75"/><stop stop-opacity="1" stop-color="rgb(88.899231%, 50.820923%, 47.375488%)" offset="0.753906"/><stop stop-opacity="1" stop-color="rgb(89.076233%, 50.917053%, 47.103882%)" offset="0.757812"/><stop stop-opacity="1" stop-color="rgb(89.251709%, 51.013184%, 46.83075%)" offset="0.761719"/><stop stop-opacity="1" stop-color="rgb(89.428711%, 51.11084%, 46.559143%)" offset="0.765625"/><stop stop-opacity="1" stop-color="rgb(89.604187%, 51.20697%, 46.286011%)" offset="0.769531"/><stop stop-opacity="1" stop-color="rgb(89.781189%, 51.303101%, 46.012878%)" offset="0.773438"/><stop stop-opacity="1" stop-color="rgb(89.956665%, 51.399231%, 45.739746%)" offset="0.777344"/><stop stop-opacity="1" stop-color="rgb(90.133667%, 51.495361%, 45.46814%)" offset="0.78125"/><stop stop-opacity="1" stop-color="rgb(90.309143%, 51.591492%, 45.195007%)" offset="0.785156"/><stop stop-opacity="1" stop-color="rgb(90.486145%, 51.689148%, 44.923401%)" offset="0.789062"/><stop stop-opacity="1" stop-color="rgb(90.661621%, 51.785278%, 44.650269%)" offset="0.792969"/><stop stop-opacity="1" stop-color="rgb(90.838623%, 51.881409%, 44.377136%)" offset="0.796875"/><stop stop-opacity="1" stop-color="rgb(91.014099%, 51.977539%, 44.104004%)" offset="0.800781"/><stop stop-opacity="1" stop-color="rgb(91.191101%, 52.075195%, 43.832397%)" offset="0.804688"/><stop stop-opacity="1" stop-color="rgb(91.366577%, 52.171326%, 43.559265%)" offset="0.808594"/><stop stop-opacity="1" stop-color="rgb(91.543579%, 52.267456%, 43.286133%)" offset="0.8125"/><stop stop-opacity="1" stop-color="rgb(91.719055%, 52.363586%, 43.013%)" offset="0.816406"/><stop stop-opacity="1" stop-color="rgb(91.896057%, 52.461243%, 42.741394%)" offset="0.820312"/><stop stop-opacity="1" stop-color="rgb(92.071533%, 52.557373%, 42.468262%)" offset="0.824219"/><stop stop-opacity="1" stop-color="rgb(92.247009%, 52.653503%, 42.196655%)" offset="0.828125"/><stop stop-opacity="1" stop-color="rgb(92.422485%, 52.749634%, 41.923523%)" offset="0.832031"/><stop stop-opacity="1" stop-color="rgb(92.599487%, 52.84729%, 41.650391%)" offset="0.835938"/><stop stop-opacity="1" stop-color="rgb(92.774963%, 52.94342%, 41.377258%)" offset="0.839844"/><stop stop-opacity="1" stop-color="rgb(92.951965%, 53.039551%, 41.105652%)" offset="0.84375"/><stop stop-opacity="1" stop-color="rgb(93.127441%, 53.135681%, 40.83252%)" offset="0.847656"/><stop stop-opacity="1" stop-color="rgb(93.304443%, 53.233337%, 40.560913%)" offset="0.851562"/><stop stop-opacity="1" stop-color="rgb(93.479919%, 53.329468%, 40.287781%)" offset="0.855469"/><stop stop-opacity="1" stop-color="rgb(93.656921%, 53.425598%, 40.014648%)" offset="0.859375"/><stop stop-opacity="1" stop-color="rgb(93.832397%, 53.521729%, 39.741516%)" offset="0.863281"/><stop stop-opacity="1" stop-color="rgb(94.009399%, 53.619385%, 39.46991%)" offset="0.867188"/><stop stop-opacity="1" stop-color="rgb(94.184875%, 53.715515%, 39.196777%)" offset="0.871094"/><stop stop-opacity="1" stop-color="rgb(94.361877%, 53.811646%, 38.923645%)" offset="0.875"/><stop stop-opacity="1" stop-color="rgb(94.537354%, 53.907776%, 38.650513%)" offset="0.878906"/><stop stop-opacity="1" stop-color="rgb(94.714355%, 54.005432%, 38.378906%)" offset="0.882812"/><stop stop-opacity="1" stop-color="rgb(94.889832%, 54.101562%, 38.105774%)" offset="0.886719"/><stop stop-opacity="1" stop-color="rgb(95.066833%, 54.197693%, 37.834167%)" offset="0.890625"/><stop stop-opacity="1" stop-color="rgb(95.24231%, 54.293823%, 37.561035%)" offset="0.894531"/><stop stop-opacity="1" stop-color="rgb(95.419312%, 54.389954%, 37.287903%)" offset="0.898438"/><stop stop-opacity="1" stop-color="rgb(95.594788%, 54.486084%, 37.014771%)" offset="0.902344"/><stop stop-opacity="1" stop-color="rgb(95.77179%, 54.58374%, 36.743164%)" offset="0.90625"/><stop stop-opacity="1" stop-color="rgb(95.947266%, 54.679871%, 36.470032%)" offset="0.910156"/><stop stop-opacity="1" stop-color="rgb(96.122742%, 54.776001%, 36.198425%)" offset="0.914062"/><stop stop-opacity="1" stop-color="rgb(96.298218%, 54.872131%, 35.925293%)" offset="0.917969"/><stop stop-opacity="1" stop-color="rgb(96.47522%, 54.969788%, 35.652161%)" offset="0.921875"/><stop stop-opacity="1" stop-color="rgb(96.650696%, 55.065918%, 35.379028%)" offset="0.925781"/><stop stop-opacity="1" stop-color="rgb(96.827698%, 55.162048%, 35.107422%)" offset="0.929688"/><stop stop-opacity="1" stop-color="rgb(97.003174%, 55.258179%, 34.83429%)" offset="0.933594"/><stop stop-opacity="1" stop-color="rgb(97.180176%, 55.355835%, 34.561157%)" offset="0.9375"/><stop stop-opacity="1" stop-color="rgb(97.355652%, 55.451965%, 34.288025%)" offset="0.941406"/><stop stop-opacity="1" stop-color="rgb(97.532654%, 55.548096%, 34.016418%)" offset="0.945312"/><stop stop-opacity="1" stop-color="rgb(97.70813%, 55.644226%, 33.743286%)" offset="0.949219"/><stop stop-opacity="1" stop-color="rgb(97.885132%, 55.741882%, 33.47168%)" offset="0.953125"/><stop stop-opacity="1" stop-color="rgb(98.060608%, 55.838013%, 33.198547%)" offset="0.957031"/><stop stop-opacity="1" stop-color="rgb(98.23761%, 55.934143%, 32.925415%)" offset="0.960938"/><stop stop-opacity="1" stop-color="rgb(98.413086%, 56.030273%, 32.652283%)" offset="0.964844"/><stop stop-opacity="1" stop-color="rgb(98.590088%, 56.12793%, 32.380676%)" offset="0.96875"/><stop stop-opacity="1" stop-color="rgb(98.765564%, 56.22406%, 32.107544%)" offset="0.972656"/><stop stop-opacity="1" stop-color="rgb(98.942566%, 56.32019%, 31.835938%)" offset="0.976562"/><stop stop-opacity="1" stop-color="rgb(99.118042%, 56.416321%, 31.562805%)" offset="0.980469"/><stop stop-opacity="1" stop-color="rgb(99.295044%, 56.513977%, 31.289673%)" offset="0.984375"/><stop stop-opacity="1" stop-color="rgb(99.47052%, 56.610107%, 31.016541%)" offset="0.988281"/><stop stop-opacity="1" stop-color="rgb(99.647522%, 56.706238%, 30.744934%)" offset="0.992188"/><stop stop-opacity="1" stop-color="rgb(99.822998%, 56.802368%, 30.471802%)" offset="0.996094"/><stop stop-opacity="1" stop-color="rgb(99.998474%, 56.898499%, 30.198669%)" offset="1"/></linearGradient><clipPath id="6d9fb120c2"><path d="M 46 105 L 318 105 L 318 281 L 46 281 Z M 46 105 " clip-rule="nonzero"/></clipPath><clipPath id="3654eb5cc6"><path d="M 30.601562 135.234375 L 148.765625 29.96875 L 340.335938 245.015625 L 222.171875 350.28125 Z M 30.601562 135.234375 " clip-rule="nonzero"/></clipPath><clipPath id="794e2e227e"><path d="M 30.601562 135.234375 L 148.765625 29.96875 L 340.335938 245.015625 L 222.171875 350.28125 Z M 30.601562 135.234375 " clip-rule="nonzero"/></clipPath><clipPath id="4cf234e53f"><path d="M 30.601562 135.234375 L 148.765625 29.96875 L 340.335938 245.015625 L 222.171875 350.28125 Z M 30.601562 135.234375 " clip-rule="nonzero"/></clipPath><clipPath id="7566aaa5f2"><path d="M 65 153 L 67 153 L 67 154 L 65 154 Z M 65 153 " clip-rule="nonzero"/></clipPath><clipPath id="d41615a9df"><path d="M 30.601562 135.234375 L 148.765625 29.96875 L 340.335938 245.015625 L 222.171875 350.28125 Z M 30.601562 135.234375 " clip-rule="nonzero"/></clipPath><clipPath id="903dc6f536"><path d="M 30.601562 135.234375 L 148.765625 29.96875 L 340.335938 245.015625 L 222.171875 350.28125 Z M 30.601562 135.234375 " clip-rule="nonzero"/></clipPath><clipPath id="bc625a655e"><path d="M 30.601562 135.234375 L 148.765625 29.96875 L 340.335938 245.015625 L 222.171875 350.28125 Z M 30.601562 135.234375 " clip-rule="nonzero"/></clipPath></defs><rect x="-37.5" width="450" fill="#ffffff" y="-37.499999" height="449.999989" fill-opacity="1"/><rect x="-37.5" fill="url(#ce9a370186)" width="450" y="-37.499999" height="449.999989"/><g clip-path="url(#6d9fb120c2)"><g clip-path="url(#3654eb5cc6)"><g clip-path="url(#794e2e227e)"><g clip-path="url(#4cf234e53f)"><path fill="#606060" d="M 60.824219 157.515625 L 59.011719 156.660156 L 60.363281 158.144531 C 61.167969 159.027344 80.269531 179.804688 96.226562 180.269531 C 107.289062 180.59375 110.410156 179.191406 115.128906 177.0625 C 117.234375 176.117188 119.621094 175.042969 123.191406 173.929688 C 135.144531 170.210938 143.242188 170.878906 146.554688 171.453125 C 146.726562 171.554688 146.902344 171.660156 147.074219 171.765625 C 141.1875 172.21875 130.347656 173.285156 123.953125 175.335938 C 123.242188 175.5625 122.324219 175.898438 121.261719 176.285156 C 112.796875 179.375 95.183594 185.796875 80.515625 177.289062 L 77.410156 175.488281 L 80.046875 177.925781 C 80.152344 178.019531 90.003906 186.980469 104.941406 188.882812 C 102.039062 189.386719 96.644531 189.765625 90.453125 187.5 L 88.835938 186.910156 L 90.03125 188.148438 C 90.054688 188.171875 90.644531 188.789062 91.757812 189.757812 C 104.769531 201.152344 123.394531 203.765625 139.226562 196.417969 C 139.316406 196.378906 139.40625 196.335938 139.492188 196.292969 C 146.414062 193.082031 156.234375 189.558594 164.078125 190.773438 C 176.050781 192.625 187.027344 197.574219 189.945312 198.960938 C 191.007812 199.628906 192.066406 200.292969 193.121094 200.949219 C 183.929688 198.488281 165.996094 194.953125 153.019531 200.351562 C 132.554688 208.871094 114.777344 209.035156 105.460938 200.800781 L 102.535156 198.210938 L 104.878906 201.335938 C 104.945312 201.421875 111.535156 210.085938 123.414062 215.855469 C 134.140625 221.070312 151.460938 224.910156 173.5 214.113281 C 171.902344 216.003906 167.902344 219.707031 159.171875 223.042969 L 155.753906 224.347656 L 159.371094 223.804688 C 159.476562 223.789062 170.195312 222.136719 183.089844 216.15625 C 194.066406 211.066406 206.945312 212.484375 216.566406 215.246094 C 219.445312 216.957031 222.265625 218.617188 225.03125 220.234375 C 216.960938 218.109375 203.914062 216.359375 191.503906 222.027344 C 189.632812 222.878906 187.835938 223.714844 186.097656 224.527344 C 169.539062 232.234375 158.609375 237.324219 143.242188 229.558594 L 140.207031 228.023438 L 142.808594 230.214844 C 143.039062 230.410156 164.144531 247.722656 192.621094 234.515625 C 194.597656 233.597656 196.605469 232.535156 198.648438 231.308594 C 193.820312 235.648438 182.785156 243.65625 169.449219 240.949219 L 167.152344 240.480469 L 169.167969 241.679688 C 169.308594 241.761719 181.839844 248.964844 199.492188 240.777344 C 200.769531 240.1875 202.070312 239.515625 203.398438 238.753906 C 198.054688 243.441406 185.953125 252.175781 175.453125 246.136719 L 173.296875 244.898438 L 174.960938 246.746094 C 175.035156 246.832031 182.488281 254.929688 193.039062 250.921875 C 198.347656 248.90625 202.859375 245.6875 206.839844 242.847656 C 207.886719 242.097656 208.894531 241.378906 209.871094 240.714844 C 207.585938 242.359375 204.890625 244.503906 201.988281 247.21875 C 199.644531 249.410156 196.886719 250.949219 194.011719 251.679688 C 193.5625 251.792969 193.152344 251.875 192.785156 251.933594 L 189.15625 252.484375 L 192.820312 252.71875 C 192.90625 252.726562 200.640625 253.167969 207.710938 249.121094 C 205.617188 251.03125 202.261719 253.386719 198.074219 253.859375 L 195.984375 254.097656 L 198.015625 254.636719 C 198.136719 254.671875 210.378906 257.734375 221.484375 243.804688 C 230.210938 232.863281 247.558594 235.234375 253.976562 236.570312 C 254.871094 237.058594 255.753906 237.535156 256.628906 238.007812 C 250.871094 237.054688 237.285156 236.210938 225.800781 246.242188 L 225.601562 246.417969 C 210.902344 259.253906 204.820312 264.566406 193.304688 256.273438 L 190.140625 253.992188 L 192.78125 256.863281 C 192.910156 257.003906 204.402344 269.210938 218.332031 262.75 C 220.003906 261.972656 221.710938 260.929688 223.441406 259.558594 C 238.242188 247.839844 253.234375 242.019531 265.945312 242.976562 C 266.921875 243.492188 267.878906 243.992188 268.828125 244.488281 C 262.109375 245.136719 244.519531 247.679688 232.597656 257.085938 C 219.460938 267.449219 211.035156 266.324219 210.953125 266.3125 L 209.011719 266.023438 L 210.683594 267.042969 C 210.800781 267.117188 221.464844 273.449219 230.460938 264.742188 C 228.933594 267.074219 226.214844 269.953125 222.167969 269.835938 L 219.371094 269.753906 L 222.035156 270.609375 C 222.117188 270.636719 227.90625 272.394531 235.886719 268.695312 C 239.179688 267.164062 242.84375 264.707031 246.636719 260.816406 C 250.804688 256.539062 255.421875 253.265625 260.3125 251.109375 C 265.355469 248.890625 270.097656 247.644531 274.4375 247.386719 C 274.832031 247.589844 275.226562 247.792969 275.613281 247.992188 C 271.175781 248.023438 262.511719 249.089844 255.6875 256.019531 C 252.230469 259.523438 249.683594 263.3125 247.433594 266.652344 C 243.445312 272.574219 240.296875 277.25 234.367188 277.296875 L 232.445312 277.3125 L 234.214844 278.058594 C 234.304688 278.097656 240.691406 280.695312 247.574219 277.503906 C 250.71875 276.046875 253.96875 273.378906 256.769531 268.707031 C 262.511719 259.125 265.332031 254.714844 270.78125 252.503906 C 268.84375 253.671875 267.164062 255.453125 266.1875 258.148438 C 265.53125 259.953125 265.320312 261.957031 265.550781 264.105469 C 265.9375 267.675781 266.738281 276.394531 265.839844 280.230469 L 265.660156 281 L 266.386719 280.683594 C 266.386719 280.683594 266.390625 280.679688 266.398438 280.679688 C 266.675781 280.546875 270.261719 278.679688 268.414062 269.007812 C 267.402344 263.726562 268.382812 259.179688 271.175781 256.199219 C 273.207031 254.035156 276.167969 252.765625 279.886719 252.433594 C 276.953125 253.097656 273.886719 254.429688 272.195312 257.0625 C 269.992188 260.488281 270.597656 265.375 274 271.589844 L 275.867188 275 L 274.726562 271.28125 C 274.707031 271.21875 272.84375 264.941406 276.320312 260.144531 C 278.335938 257.363281 281.71875 255.605469 286.40625 254.886719 C 285.789062 255.050781 285.179688 255.296875 284.609375 255.640625 C 283.144531 256.527344 282.1875 257.929688 281.765625 259.816406 C 280.867188 263.828125 283.535156 266.683594 285.207031 268.03125 C 287.667969 270.015625 290.925781 271.148438 292.316406 270.503906 L 292.988281 270.191406 L 292.355469 269.804688 C 292.296875 269.765625 286.179688 265.976562 286.667969 262.128906 C 286.933594 260.003906 289.179688 258.195312 293.324219 256.75 C 304.261719 261.980469 311.472656 265.050781 314.46875 266.289062 C 315.367188 266.660156 316.394531 266.289062 316.855469 265.433594 C 317.410156 264.398438 316.90625 263.117188 315.796875 262.742188 C 312.398438 261.605469 305.242188 259.042969 296.511719 254.992188 C 296.195312 254.847656 295.84375 254.683594 295.484375 254.515625 C 301.277344 250.097656 306.636719 255.34375 306.878906 255.582031 L 308.460938 257.167969 L 307.519531 255.136719 C 305.085938 249.882812 300.648438 248.234375 298.292969 247.726562 C 303.203125 246.289062 307.429688 249.214844 307.476562 249.25 L 310.003906 251.035156 L 308.007812 248.667969 C 303.25 243.023438 291.925781 243.363281 287.351562 243.761719 C 299.734375 237.179688 307.304688 241.402344 307.382812 241.449219 L 310.707031 243.378906 L 307.847656 240.808594 C 300.550781 234.257812 289.078125 238.605469 284.476562 240.789062 C 295.625 229.339844 311.335938 227.46875 311.5 227.453125 L 315.007812 227.0625 L 311.503906 226.660156 C 291.367188 224.367188 283.183594 234.664062 280.535156 239.359375 C 283.53125 220.789062 302.710938 214.191406 302.910156 214.125 L 305.277344 213.335938 L 302.78125 213.351562 C 282.5625 213.464844 277.089844 229.015625 275.777344 234.59375 C 273.160156 218.351562 293.238281 208.816406 293.449219 208.71875 L 296.675781 207.222656 L 293.199219 207.96875 C 273.980469 212.113281 271.179688 222.460938 270.902344 226.960938 C 270.136719 224.609375 270.214844 222.25 271.136719 219.925781 C 275.117188 209.929688 293.390625 203.472656 293.574219 203.410156 L 296.183594 202.5 L 293.421875 202.636719 C 282.605469 203.171875 275.117188 206.320312 271.164062 211.996094 C 267.707031 216.964844 267.875 222.714844 268.34375 225.914062 C 264.613281 218.324219 267.109375 210.246094 270.660156 207.183594 C 272.917969 205.234375 276.949219 203.3125 280.285156 203.402344 C 292.371094 203.730469 294.976562 196.75 295.082031 196.453125 L 295.648438 194.851562 L 294.433594 196.035156 C 294.378906 196.089844 288.964844 201.269531 281.851562 200.171875 C 276.125 199.285156 272.859375 200.027344 269.160156 201.609375 C 262 204.679688 257.710938 213.390625 259.183594 221.890625 C 260.296875 228.289062 264.058594 233.945312 266.582031 237.144531 C 257.675781 229.402344 255.261719 215.953125 259.515625 208.628906 C 264.375 200.265625 264.960938 193.964844 264.984375 193.699219 L 265.238281 190.746094 L 264.214844 193.53125 C 263.082031 196.625 261.070312 199.28125 259.347656 201.160156 C 268.328125 187.734375 264.878906 178.3125 264.714844 177.882812 L 264.113281 176.320312 L 263.949219 177.988281 C 262.871094 188.976562 257 196.496094 253.777344 199.863281 C 264.660156 180.445312 254.0625 160.53125 253.949219 160.324219 L 252.722656 158.066406 L 253.210938 160.589844 C 255.554688 172.632812 253.914062 178.117188 251.191406 187.207031 C 250.242188 190.375 249.167969 193.964844 248.070312 198.429688 C 245.433594 209.164062 248.257812 217.925781 250.039062 221.976562 C 237.777344 207.496094 249.113281 184.746094 249.234375 184.507812 L 250.484375 182.046875 L 244.648438 188.234375 C 254.308594 168.625 251.105469 154.273438 251.070312 154.125 L 250.328125 150.960938 L 250.285156 154.210938 C 250.148438 165.570312 246.101562 172.441406 241.222656 179.625 C 238.132812 184.179688 237.324219 192.066406 237.1875 197.902344 C 237.007812 192.476562 237.777344 184.605469 242.121094 176.433594 C 250.113281 161.398438 248.574219 148.851562 248.558594 148.726562 L 248.125 145.429688 L 247.769531 148.738281 C 247.066406 155.289062 243.140625 164.777344 241.007812 169.550781 C 245.335938 145.042969 235.984375 138.074219 235.566406 137.777344 L 233.949219 136.628906 L 235 138.3125 C 238.457031 143.847656 240.371094 155.898438 237.429688 165.71875 C 235.046875 173.667969 233.796875 188.15625 233.367188 194.050781 C 232.46875 188.691406 233.003906 180.199219 233.699219 169.074219 C 233.976562 164.679688 234.289062 159.699219 234.535156 154.429688 C 235.503906 133.859375 226.972656 128.148438 226.609375 127.914062 L 223.894531 126.175781 L 226.105469 128.523438 C 230.085938 132.746094 232.585938 145.242188 227.667969 167.648438 C 223.851562 185.046875 226.386719 196.980469 228.144531 202.371094 C 225.914062 198.085938 222.949219 188.328125 226.621094 169.53125 C 232.042969 141.765625 221.488281 127.984375 221.378906 127.847656 L 220.113281 126.238281 L 220.6875 128.207031 C 227.835938 152.601562 220.761719 161.996094 217.757812 164.710938 C 229.746094 137.609375 212.808594 122.355469 212.632812 122.203125 L 210.984375 120.761719 L 212.019531 122.691406 C 221.398438 140.121094 216.792969 155.613281 213.816406 162.410156 C 216.347656 151.191406 213.292969 140.648438 213.257812 140.53125 L 212.460938 137.84375 L 212.480469 140.648438 C 212.515625 145.214844 212.175781 148.566406 211.816406 150.804688 C 211.597656 124.738281 203.933594 116.296875 203.59375 115.933594 L 201.472656 113.683594 L 202.957031 116.398438 C 208.816406 127.109375 209.785156 133.53125 205.421875 158.273438 C 201.878906 178.378906 213.847656 203.472656 218.84375 212.8125 C 218.726562 212.742188 218.609375 212.671875 218.492188 212.597656 C 202.101562 184.832031 202.148438 167.203125 202.566406 162.417969 C 203.265625 154.460938 201.601562 146.867188 197.757812 140.464844 C 190.921875 129.070312 183.488281 127.039062 183.175781 126.957031 L 181.519531 126.527344 L 182.816406 127.640625 C 187.824219 131.945312 189.355469 136.0625 189.820312 138.101562 C 172.417969 118.015625 148.425781 108.6875 148.183594 108.59375 L 145.480469 107.5625 L 147.804688 109.285156 C 148.046875 109.464844 172.015625 127.515625 171.257812 151.917969 C 170.691406 170.097656 181.480469 185.4375 187.363281 192.410156 C 185.746094 191.308594 184.117188 190.191406 182.480469 189.0625 C 179.378906 185.273438 172.164062 174.316406 169.5 151.929688 C 166.03125 122.804688 137.980469 111.019531 137.695312 110.902344 L 134.199219 109.472656 L 137.324219 111.597656 C 137.449219 111.683594 150.101562 120.539062 157.160156 146.683594 C 158.785156 152.703125 159.730469 159.253906 159.96875 166.152344 C 160.054688 168.730469 160.386719 172.144531 161.367188 175.433594 C 160.804688 175.09375 160.238281 174.753906 159.671875 174.417969 C 159.167969 172.125 158.40625 167.058594 158.25 156.972656 C 158.085938 146.449219 147.355469 125.683594 133.761719 114.6875 C 127.476562 109.605469 121.414062 107.460938 116.222656 108.484375 L 113.667969 108.988281 L 116.257812 109.269531 C 116.320312 109.273438 122.003906 109.949219 125.132812 114.929688 C 120.578125 112.15625 104.699219 103.550781 86.652344 106.019531 L 84.324219 106.335938 L 86.628906 106.800781 C 86.753906 106.828125 97.875 109.101562 106.589844 113.851562 C 99.164062 111.296875 82.367188 106.484375 70.125 110.167969 L 68.066406 110.789062 L 70.210938 110.945312 C 70.273438 110.949219 75.289062 111.328125 79.0625 112.378906 C 74.660156 112.058594 66.316406 111.699219 61.859375 113.128906 C 55.683594 115.109375 50.960938 117.300781 48.558594 119.308594 C 47.308594 120.355469 46.753906 123.855469 47.273438 127.449219 C 47.585938 129.632812 48.703125 134.445312 52.566406 137.4375 C 50.832031 136.847656 48.683594 135.820312 47.464844 134.15625 L 46.660156 133.050781 L 46.75 134.417969 C 46.765625 134.632812 48.433594 155.1875 73.503906 158.433594 C 70.035156 158.867188 64.394531 159.203125 60.824219 157.515625 Z M 180.320312 187.582031 C 178.257812 186.171875 176.183594 184.78125 174.09375 183.414062 C 170.230469 174.195312 167.167969 164.574219 165.3125 154.742188 C 163.53125 144.582031 160.449219 134.195312 153.878906 126.058594 C 155.511719 128.082031 156.898438 130.285156 158.109375 132.582031 C 161.648438 139.523438 163.734375 147.128906 164.917969 154.8125 C 165.796875 159.945312 167.054688 165.007812 168.542969 169.996094 C 169.835938 174.277344 171.289062 178.507812 172.949219 182.667969 C 169.457031 180.402344 165.933594 178.195312 162.394531 176.050781 C 161.230469 172.59375 160.855469 168.867188 160.761719 166.125 C 160.523438 159.164062 159.570312 152.554688 157.925781 146.476562 C 152.644531 126.914062 144.222656 116.902344 140.140625 112.976562 C 147.261719 116.757812 165.945312 128.792969 168.710938 152.023438 C 171.050781 171.6875 176.742188 182.511719 180.320312 187.582031 Z M 217.046875 211.707031 C 214.472656 210.109375 211.847656 208.453125 209.195312 206.765625 C 203.289062 197.511719 199.515625 186.929688 198.621094 175.957031 C 197.664062 167.34375 197.328125 158.402344 194 150.257812 C 192.914062 147.554688 191.574219 144.960938 190.085938 142.464844 C 192.953125 147.519531 195.054688 153.003906 196.070312 158.714844 C 198.125 170.121094 197.179688 182.164062 201.515625 193.132812 C 203.125 197.527344 205.140625 201.757812 207.59375 205.75 C 204.59375 203.832031 201.546875 201.855469 198.460938 199.828125 C 192.34375 191.410156 187.023438 182.078125 184.722656 171.859375 C 183.007812 161.160156 182.59375 150.007812 178.113281 139.960938 C 176.863281 137.109375 175.332031 134.382812 173.574219 131.8125 C 175.304688 134.402344 176.804688 137.140625 178.019531 140 C 181.71875 148.628906 182.585938 158.066406 183.644531 167.304688 C 183.953125 170.402344 184.496094 173.515625 185.445312 176.488281 C 187.933594 184.441406 191.957031 191.804688 196.679688 198.652344 C 194.464844 197.191406 192.222656 195.691406 189.964844 194.167969 C 185.164062 188.960938 171.421875 172.226562 172.050781 151.941406 C 172.683594 131.5625 156.414062 115.582031 150.4375 110.417969 C 157.199219 113.449219 176.0625 122.917969 190.117188 139.671875 L 190.835938 140.527344 L 190.820312 139.414062 C 190.816406 139.1875 190.6875 134.257812 185 128.582031 C 187.664062 129.957031 192.539062 133.308594 197.078125 140.871094 C 200.832031 147.132812 202.457031 154.558594 201.777344 162.347656 C 201.359375 167.121094 201.289062 184.476562 217.046875 211.707031 Z M 294.679688 254.140625 C 293.46875 253.574219 292.066406 252.917969 290.453125 252.144531 C 292.164062 250.089844 295.59375 250.164062 298.058594 250.773438 C 295.398438 249.871094 291.78125 249.625 289.804688 251.835938 C 288.347656 251.140625 286.742188 250.363281 285 249.511719 C 285.042969 246.710938 289.003906 245.898438 291.363281 245.746094 C 292.382812 245.648438 293.40625 245.675781 294.433594 245.675781 C 293.410156 245.609375 292.382812 245.515625 291.351562 245.546875 C 288.765625 245.511719 284.757812 246.265625 284.292969 249.164062 C 282.46875 248.269531 280.5 247.292969 278.386719 246.230469 C 274.242188 241.066406 278.875 231.152344 281.953125 225.867188 C 278.734375 230.941406 274.324219 240.058594 277.257812 245.660156 C 276.90625 245.480469 276.558594 245.308594 276.199219 245.125 C 268.9375 235.859375 262.78125 224.539062 263.671875 212.46875 C 262.660156 221.925781 266.398438 231.15625 271.175781 239.136719 C 272.253906 240.90625 273.398438 242.636719 274.617188 244.316406 C 270.3125 242.117188 265.527344 239.613281 260.3125 236.800781 C 255.910156 227.988281 253.757812 218.003906 254.097656 208.160156 C 253.539062 217.742188 255.3125 227.46875 259.253906 236.230469 C 256.003906 234.472656 252.585938 232.589844 249.027344 230.59375 C 242.894531 222.609375 241.460938 210.332031 241.089844 200.679688 C 241.089844 200.679688 241.074219 195.824219 241.074219 195.824219 L 240.992188 200.683594 C 241.148438 210.332031 242.226562 220.472656 247.042969 229.011719 C 247.183594 229.253906 247.332031 229.488281 247.476562 229.726562 C 244.867188 228.253906 242.183594 226.722656 239.421875 225.125 C 234.054688 212.042969 227.207031 192.96875 229.128906 179.488281 C 228.390625 183.539062 228.644531 187.695312 229.136719 191.765625 C 230.230469 199.917969 232.484375 207.871094 235.097656 215.65625 C 236.105469 218.621094 237.171875 221.566406 238.324219 224.484375 C 234.28125 222.140625 230.097656 219.664062 225.777344 217.050781 C 222.511719 210.152344 219.570312 203.074219 217.097656 195.847656 C 214.589844 188.269531 212.191406 180.421875 212.308594 172.355469 C 212.054688 178.40625 213.457031 184.378906 214.96875 190.195312 C 216.613281 196.007812 218.582031 201.71875 220.8125 207.332031 C 222.011719 210.359375 223.265625 213.363281 224.597656 216.335938 C 223.144531 215.457031 221.679688 214.5625 220.199219 213.648438 C 215.75 205.550781 202.535156 179.226562 206.203125 158.410156 C 208.824219 143.546875 209.496094 135.128906 208.347656 128.453125 C 209.9375 134.378906 211.207031 142.820312 211.003906 154.449219 L 210.960938 156.804688 L 211.773438 154.59375 C 211.828125 154.441406 212.980469 151.214844 213.230469 144.0625 C 214.0625 148.710938 214.949219 157.574219 211.914062 166.140625 L 210.785156 169.335938 L 212.625 166.488281 C 212.75 166.292969 224.589844 147.488281 214.003906 124.863281 C 218.105469 129.917969 226.652344 144.101562 216.382812 165.8125 L 215.871094 166.890625 L 216.925781 166.332031 C 217.464844 166.046875 229.699219 159.183594 222.203125 130.683594 C 224.867188 135.640625 229.925781 148.46875 225.839844 169.378906 C 220.40625 197.1875 229.136719 205.398438 229.507812 205.734375 L 231.160156 207.21875 L 230.125 205.253906 C 230.054688 205.121094 223.199219 191.726562 228.445312 167.816406 C 232.453125 149.558594 231.539062 137.730469 228.886719 131.523438 C 231.289062 134.980469 234.332031 141.902344 233.742188 154.390625 C 233.496094 159.65625 233.183594 164.632812 232.90625 169.023438 C 232.085938 182.160156 231.488281 191.652344 233.210938 196.796875 L 233.867188 198.753906 L 233.984375 196.691406 C 233.996094 196.484375 235.191406 175.949219 238.1875 165.949219 C 240.777344 157.308594 239.675781 146.960938 237.054688 140.625 C 239.691406 144.425781 243.625 153.703125 239.601562 172.617188 L 238.929688 175.769531 L 240.347656 172.871094 C 240.410156 172.746094 245.808594 161.628906 247.878906 152.699219 C 247.738281 157.488281 246.648438 166.222656 241.421875 176.0625 C 233.414062 191.128906 237.324219 205.210938 237.363281 205.351562 L 238.449219 209.125 L 238.140625 205.210938 C 238.125 205.035156 236.816406 187.53125 241.878906 180.074219 C 245.976562 174.039062 249.71875 167.828125 250.785156 158.867188 C 251.019531 164.90625 250.15625 176.421875 242.660156 190.363281 L 241.238281 193.007812 L 247.566406 186.296875 C 244.898438 192.757812 238.402344 212.296875 251.324219 224.484375 L 253.558594 226.589844 L 251.933594 223.984375 C 251.867188 223.878906 245.285156 213.085938 248.839844 198.621094 C 249.933594 194.175781 251.007812 190.59375 251.953125 187.433594 C 254.460938 179.050781 256.066406 173.691406 254.535156 163.558594 C 257.113281 170.03125 261.839844 186.453125 251.570312 201.957031 L 250.210938 204.007812 L 252.144531 202.492188 C 252.25 202.40625 262.171875 194.472656 264.453125 180.285156 C 265.023438 184.183594 264.972656 193.117188 256.140625 204.195312 L 254.128906 206.71875 L 256.691406 204.757812 C 256.894531 204.601562 260.929688 201.480469 263.605469 196.722656 C 262.945312 199.367188 261.585938 203.488281 258.832031 208.230469 C 253.976562 216.59375 257.449219 232.613281 269.042969 239.96875 L 272.074219 241.890625 L 269.539062 239.351562 C 269.457031 239.273438 261.632812 231.351562 259.96875 221.753906 C 258.554688 213.609375 262.660156 205.257812 269.472656 202.339844 C 273.039062 200.8125 276.1875 200.097656 281.730469 200.957031 C 286.820312 201.742188 290.996094 199.570312 293.226562 198.015625 C 291.632812 199.988281 287.996094 202.816406 280.308594 202.609375 C 276.765625 202.515625 272.511719 204.535156 270.140625 206.582031 C 265.933594 210.210938 263.164062 219.84375 268.910156 228.484375 L 270.457031 230.8125 L 269.621094 228.144531 C 269.59375 228.058594 266.957031 219.421875 271.820312 212.445312 C 275.300781 207.453125 281.683594 204.488281 290.824219 203.621094 C 285.566406 205.785156 273.644531 211.476562 270.398438 219.632812 C 269.136719 222.804688 269.339844 226.03125 270.996094 229.21875 L 272.1875 231.503906 L 271.742188 228.964844 C 271.636719 228.378906 269.574219 215.113281 290.464844 209.449219 C 284.660156 212.921875 271.660156 222.488281 275.414062 236.699219 L 275.957031 238.746094 L 276.195312 236.640625 C 276.21875 236.425781 278.8125 215.671875 300.570312 214.222656 C 295.109375 216.679688 280.832031 224.695312 279.457031 241.683594 L 279.195312 244.9375 L 280.230469 241.84375 C 280.285156 241.675781 285.820312 225.957031 308.429688 227.199219 C 302.917969 228.402344 290.929688 232.03125 282.382812 241.894531 L 280.851562 243.664062 L 282.878906 242.5 C 283.023438 242.417969 296.019531 235.085938 304.890625 239.714844 C 301.289062 238.863281 294.488281 238.566406 285.257812 244.027344 L 283.53125 245.046875 L 285.515625 244.761719 C 285.65625 244.738281 298.234375 243 305.046875 247.191406 C 302.917969 246.460938 299.839844 246.011719 296.554688 247.535156 L 295.039062 248.238281 L 296.710938 248.289062 C 296.773438 248.292969 302.460938 248.539062 305.882812 253.804688 C 303.621094 252.316406 299.207031 250.433594 294.679688 254.140625 Z M 290.648438 255.46875 C 291.214844 255.742188 291.773438 256.007812 292.320312 256.273438 C 288.335938 257.792969 286.167969 259.722656 285.878906 262.03125 C 285.449219 265.4375 289.238281 268.585938 291.035156 269.871094 C 289.75 269.753906 287.628906 268.964844 285.703125 267.410156 C 284.175781 266.179688 281.738281 263.582031 282.539062 259.988281 C 282.914062 258.324219 283.746094 257.089844 285.019531 256.320312 C 286.855469 255.210938 289.21875 255.28125 290.648438 255.46875 Z M 284.839844 252.625 C 285.746094 253.074219 286.636719 253.511719 287.507812 253.9375 C 281.96875 254.5625 277.992188 256.484375 275.675781 259.683594 C 273.4375 262.777344 273.25 266.347656 273.46875 268.753906 C 271.324219 263.984375 271.117188 260.203125 272.863281 257.492188 C 275.378906 253.582031 281.414062 252.761719 284.839844 252.625 Z M 266.933594 258.417969 C 269.816406 250.457031 279.371094 251.011719 282.363281 251.398438 C 282.480469 251.453125 282.59375 251.511719 282.710938 251.570312 C 277.425781 251.414062 273.273438 252.804688 270.59375 255.65625 C 267.625 258.824219 266.574219 263.621094 267.632812 269.15625 C 268.820312 275.371094 267.679688 278.125 266.820312 279.25 C 267.398438 274.933594 266.695312 267.3125 266.339844 264.019531 C 266.121094 261.992188 266.320312 260.109375 266.933594 258.417969 Z M 277.238281 248.820312 C 277.359375 248.878906 277.472656 248.9375 277.589844 248.996094 C 267.648438 248.734375 259.015625 252.996094 254.859375 262.652344 C 251.925781 267.769531 248.648438 273.308594 243.296875 276.179688 C 248.890625 273.640625 252.445312 268.109375 255.503906 263.007812 C 256.507812 261.230469 257.371094 259.441406 258.59375 257.890625 C 263.347656 251.679688 271.679688 249.402344 279.242188 249.886719 C 266.730469 251.222656 264.234375 254.703125 256.085938 268.296875 C 249.488281 279.304688 240.363281 278.753906 236.441406 277.890625 C 241.480469 276.914062 244.445312 272.507812 248.089844 267.09375 C 250.320312 263.78125 252.851562 260.027344 256.25 256.574219 C 263.875 248.835938 273.863281 248.636719 277.238281 248.820312 Z M 270.132812 245.167969 C 271.140625 245.691406 272.136719 246.203125 273.113281 246.707031 C 269.027344 247.117188 264.632812 248.339844 259.992188 250.382812 C 254.992188 252.589844 250.308594 255.910156 246.070312 260.261719 C 237.171875 269.394531 229.046875 270.433594 224.992188 270.242188 C 230.304688 268.589844 232.695312 262.214844 232.722656 262.140625 L 233.632812 259.660156 L 232.03125 261.761719 C 224.925781 271.113281 216.148438 268.667969 212.640625 267.140625 C 215.835938 266.980469 223.082031 265.605469 233.089844 257.710938 C 245.683594 247.773438 264.75 245.59375 270.132812 245.167969 Z M 259.085938 239.332031 C 260.863281 240.285156 262.601562 241.210938 264.300781 242.109375 C 251.761719 241.75 237.25 247.613281 222.949219 258.9375 C 212.113281 267.511719 202.28125 263.15625 197.128906 259.527344 C 206.570312 264.09375 212.980469 258.496094 226.121094 247.015625 L 226.320312 246.84375 C 240.324219 234.609375 257.515625 238.90625 259.085938 239.332031 Z M 227.855469 221.875 C 228.894531 222.480469 229.929688 223.078125 230.957031 223.667969 C 220.492188 222.667969 209.742188 222.429688 199.609375 225.453125 C 196.808594 226.285156 194.324219 227.898438 191.78125 229.265625 C 184.03125 233.179688 175.34375 235.089844 166.699219 235.574219 C 175.359375 235.191406 184.097656 233.371094 191.917969 229.53125 C 194.488281 228.191406 196.925781 226.632812 199.730469 225.832031 C 205.257812 224.132812 211.089844 223.699219 216.847656 223.640625 C 222.105469 223.617188 227.375 223.957031 232.582031 224.605469 C 234.898438 225.933594 237.171875 227.226562 239.398438 228.488281 C 231.277344 227.054688 222.8125 227.070312 214.96875 229.683594 C 211.902344 230.660156 208.757812 232.519531 205.902344 233.976562 C 201.929688 235.9375 198.058594 238.167969 193.886719 239.671875 C 199.191406 238.15625 204.222656 235.476562 209.1875 233.097656 C 211.109375 232.140625 213.183594 231.113281 215.234375 230.476562 C 220.445312 228.738281 226.027344 228.308594 231.507812 228.542969 C 234.910156 228.714844 238.328125 229.101562 241.675781 229.769531 C 245.140625 231.714844 248.496094 233.574219 251.746094 235.351562 C 243.976562 234.082031 228.917969 233.207031 220.863281 243.3125 C 213.035156 253.128906 204.683594 254.269531 200.660156 254.148438 C 206.78125 252.378906 210.5625 247.273438 210.742188 247.03125 L 212.515625 244.597656 L 210.171875 246.488281 C 205.425781 250.320312 199.71875 251.480469 196.195312 251.816406 C 198.476562 250.933594 200.632812 249.570312 202.527344 247.800781 C 210.707031 240.148438 217.21875 237.082031 217.285156 237.050781 L 220.203125 235.695312 L 217.042969 236.300781 C 213.769531 236.929688 210.34375 239.371094 206.378906 242.199219 C 202.433594 245.011719 197.96875 248.199219 192.757812 250.179688 C 185.972656 252.757812 180.539062 250.082031 177.703125 248.050781 C 191.496094 252.976562 206.601562 236.824219 206.761719 236.648438 L 209.015625 234.199219 L 206.246094 236.050781 C 190.394531 246.644531 177.585938 244.074219 172.253906 242.164062 C 189.160156 243.761719 201.742188 229.386719 201.875 229.234375 L 203.796875 227 L 201.351562 228.644531 C 176.042969 245.695312 155.117188 236.910156 146.976562 232.082031 C 160.609375 237.269531 171.164062 232.351562 186.433594 225.246094 C 188.167969 224.4375 189.960938 223.601562 191.832031 222.75 C 205.742188 216.398438 220.488281 219.53125 227.855469 221.875 Z M 195.542969 202.457031 C 196.953125 203.332031 198.355469 204.203125 199.746094 205.058594 C 191.210938 204.109375 182.582031 203.480469 174.046875 204.648438 C 170.761719 205.1875 167.660156 206.371094 164.453125 207.195312 C 154.925781 209.761719 145.152344 212.070312 135.230469 211.898438 C 131.941406 211.808594 128.621094 211.433594 125.496094 210.328125 C 128.609375 211.464844 131.933594 211.875 135.226562 211.996094 C 145.167969 212.269531 154.988281 210.054688 164.554688 207.578125 C 167.746094 206.792969 170.886719 205.636719 174.128906 205.140625 C 183.136719 204 192.300781 204.878906 201.292969 206.007812 C 205.675781 208.699219 209.957031 211.296875 214.121094 213.785156 C 204.710938 211.492188 192.929688 210.71875 182.753906 215.4375 C 174.648438 219.199219 167.414062 221.230469 163.179688 222.222656 C 172.671875 217.867188 175.019531 213.421875 175.125 213.210938 L 175.675781 212.121094 L 174.589844 212.679688 C 152.167969 224.21875 134.585938 220.394531 123.792969 215.15625 C 116.195312 211.472656 110.796875 206.589844 107.917969 203.589844 C 117.984375 209.738281 134.566406 208.894531 153.324219 201.085938 C 167.488281 195.191406 187.730469 200.140625 195.542969 202.457031 Z M 148.257812 172.472656 C 152.125 174.800781 155.972656 177.171875 159.789062 179.589844 C 153.058594 177.898438 145.730469 178.671875 139.464844 181.652344 C 133.445312 184.351562 127.050781 186.238281 120.527344 187.230469 C 118.347656 187.558594 116.15625 187.808594 113.953125 187.875 C 116.15625 187.839844 118.355469 187.625 120.539062 187.328125 C 127.105469 186.429688 133.535156 184.636719 139.625 182.015625 C 146.597656 178.820312 154.851562 178.378906 162.03125 181.035156 C 163.707031 182.109375 165.386719 183.175781 167.050781 184.269531 C 167.0625 184.277344 167.078125 184.285156 167.089844 184.292969 C 167.300781 184.441406 167.519531 184.585938 167.742188 184.71875 C 173.792969 188.679688 179.6875 192.476562 185.425781 196.109375 C 180.386719 194.054688 172.53125 191.277344 164.203125 189.988281 C 156.09375 188.734375 146 192.40625 138.980469 195.660156 C 138.953125 195.671875 138.921875 195.6875 138.894531 195.699219 C 123.34375 202.910156 105.058594 200.351562 92.28125 189.164062 C 92.140625 189.042969 92.011719 188.925781 91.890625 188.816406 C 100.574219 191.429688 107.179688 189.203125 107.472656 189.101562 L 109.289062 188.46875 L 107.375 188.328125 C 96.445312 187.535156 87.980469 182.730469 83.691406 179.742188 C 97.933594 185.640625 114.242188 179.691406 121.53125 177.03125 C 122.585938 176.648438 123.5 176.3125 124.195312 176.089844 C 130.949219 173.929688 142.769531 172.867188 148.257812 172.472656 Z M 62.136719 158.855469 C 67.917969 160.546875 76.324219 158.8125 76.710938 158.730469 L 79.523438 158.136719 L 76.65625 157.945312 C 53.222656 156.371094 48.578125 140.308594 47.722656 135.632812 C 50.4375 138.171875 54.921875 138.890625 55.132812 138.925781 L 58.179688 139.394531 L 55.351562 138.167969 C 49.828125 135.769531 48.410156 129.792969 48.058594 127.335938 C 47.535156 123.710938 48.175781 120.664062 49.066406 119.917969 C 51.394531 117.972656 56.023438 115.832031 62.101562 113.882812 C 68.050781 111.980469 81.710938 113.402344 81.847656 113.414062 L 83.863281 113.628906 L 82.078125 112.671875 C 79.675781 111.378906 75.222656 110.691406 72.523438 110.375 C 88.238281 107.019531 109.855469 115.894531 110.082031 115.992188 L 113.496094 117.410156 L 110.464844 115.296875 C 103.597656 110.515625 93.535156 107.652344 89.066406 106.546875 C 109.0625 104.824219 125.808594 116.296875 125.984375 116.414062 L 127.1875 117.253906 L 126.570312 115.921875 C 124.605469 111.679688 120.980469 109.820312 118.613281 109.03125 C 123.050781 108.960938 128.0625 111.101562 133.261719 115.304688 C 146.472656 125.992188 157.300781 146.84375 157.457031 156.988281 C 157.601562 166.191406 158.234375 171.242188 158.738281 173.867188 C 153.105469 170.53125 147.453125 167.355469 141.847656 164.34375 C 146.980469 152.128906 141.136719 135.617188 135.625 124.351562 C 135.625 124.351562 132.871094 119.125 132.871094 119.125 L 135.535156 124.398438 C 140.777344 135.59375 146.328125 151.980469 141.15625 163.957031 C 141.15625 163.957031 141.359375 164.074219 141.546875 164.179688 C 137.078125 161.785156 132.644531 159.492188 128.28125 157.304688 C 131.203125 146.558594 129.097656 135.09375 125.273438 124.851562 C 124.679688 123.351562 124.027344 121.878906 123.40625 120.394531 C 123.996094 121.890625 124.617188 123.378906 125.183594 124.882812 C 127.871094 132.425781 129.460938 140.472656 129.011719 148.5 C 128.835938 151.359375 128.441406 154.261719 127.605469 156.96875 C 126.121094 156.226562 124.648438 155.5 123.179688 154.785156 C 124.289062 143.796875 123.1875 132.363281 118.554688 122.265625 C 121.945312 130.019531 123.125 138.558594 122.988281 146.972656 C 122.9375 149.464844 122.769531 151.96875 122.449219 154.425781 C 119.222656 152.855469 116.050781 151.347656 112.9375 149.902344 C 113.847656 140.417969 111.738281 130.585938 106.453125 122.628906 C 110.449219 128.972656 112.410156 136.445312 112.511719 143.917969 C 112.539062 145.804688 112.457031 147.710938 112.234375 149.578125 C 108.851562 148.011719 105.546875 146.515625 102.339844 145.101562 L 102.738281 145.140625 C 103.054688 136.261719 100.527344 127.46875 96.363281 119.691406 C 99.316406 125.574219 101.257812 131.980469 101.859375 138.542969 C 102.050781 140.667969 102.125 142.832031 101.957031 144.929688 C 98.820312 143.546875 95.785156 142.238281 92.859375 141.003906 C 93.953125 133.398438 90.875 125.832031 87.402344 119.214844 C 89.945312 124.347656 91.984375 129.917969 92.394531 135.660156 C 92.484375 137.320312 92.472656 139.070312 92.144531 140.699219 C 90.589844 140.042969 89.066406 139.410156 87.582031 138.800781 C 88.109375 131.007812 85.910156 123.15625 81.785156 116.570312 C 85.605469 123.128906 87.550781 130.917969 86.839844 138.496094 C 85.542969 137.960938 84.277344 137.449219 83.042969 136.949219 C 83.765625 133.921875 83.144531 130.964844 82.503906 128.019531 C 81.792969 125.058594 80.691406 122.078125 79.53125 119.257812 C 81.304688 124.257812 82.988281 129.554688 82.660156 134.914062 C 82.601562 135.503906 82.511719 136.132812 82.351562 136.671875 C 78.519531 135.132812 74.996094 133.761719 71.839844 132.558594 C 72.035156 132.589844 72.234375 132.621094 72.234375 132.621094 C 72.585938 127.296875 70.527344 122.125 67.496094 117.847656 C 67.828125 118.410156 68.183594 118.957031 68.496094 119.527344 C 70.625 123.40625 71.953125 127.980469 71.453125 132.414062 C 61.125 128.496094 54.835938 126.445312 54.835938 126.445312 C 58.253906 127.699219 62.511719 129.445312 67.28125 131.5 C 64.84375 132.457031 62.324219 133.25 59.707031 133.613281 C 62.621094 133.476562 65.503906 132.804688 68.304688 131.941406 C 70.125 132.734375 72.015625 133.566406 73.960938 134.433594 C 69.289062 135.730469 64.46875 136.695312 59.605469 136.742188 C 64.816406 136.949219 70.007812 136.121094 75.078125 134.933594 C 77.46875 136.003906 79.933594 137.125 82.4375 138.277344 C 79.085938 139.097656 75.6875 139.792969 72.269531 140.292969 C 68.375 140.800781 64.34375 141.332031 60.464844 140.460938 C 64.324219 141.464844 68.394531 141.066406 72.316406 140.6875 C 76.097656 140.261719 79.84375 139.609375 83.570312 138.796875 C 88.507812 141.070312 93.578125 143.453125 98.570312 145.824219 C 87.125 149.46875 74.488281 151.53125 62.765625 148.128906 C 61.0625 147.582031 59.398438 146.898438 57.8125 146.070312 C 59.382812 146.929688 61.035156 147.644531 62.734375 148.222656 C 71.335938 151.003906 80.628906 150.480469 89.417969 148.894531 C 92.863281 148.242188 96.265625 147.417969 99.617188 146.320312 C 99.976562 146.492188 100.335938 146.660156 100.691406 146.832031 C 103.296875 148.074219 105.890625 149.34375 108.476562 150.628906 C 96.429688 153.875 78.03125 157.804688 66.613281 153.527344 C 76.292969 157.34375 89.582031 155.210938 99.496094 153.449219 C 102.863281 152.792969 106.210938 152.035156 109.535156 151.148438 C 115.617188 154.1875 121.636719 157.34375 127.601562 160.605469 C 117.925781 162.0625 108.226562 163.429688 98.503906 164.519531 C 93.214844 165.046875 87.898438 165.738281 82.597656 165.1875 C 77.320312 164.644531 72.074219 163.285156 67.316406 160.914062 C 72.054688 163.347656 77.292969 164.773438 82.578125 165.382812 C 87.902344 166.003906 93.25 165.375 98.542969 164.914062 C 108.628906 163.910156 118.675781 162.613281 128.714844 161.21875 C 134.117188 164.1875 139.46875 167.242188 144.769531 170.386719 C 140.675781 169.945312 133.277344 169.960938 122.957031 173.171875 C 119.339844 174.300781 116.929688 175.382812 114.804688 176.339844 C 110.183594 178.421875 107.128906 179.792969 96.25 179.476562 C 82.851562 179.085938 66.609375 163.433594 62.136719 158.855469 Z M 62.136719 158.855469 " fill-opacity="1" fill-rule="nonzero"/></g></g></g></g><g clip-path="url(#7566aaa5f2)"><g clip-path="url(#d41615a9df)"><g clip-path="url(#903dc6f536)"><g clip-path="url(#bc625a655e)"><path fill="#606060" d="M 65.417969 153.042969 C 65.808594 153.21875 66.210938 153.371094 66.613281 153.527344 C 66.207031 153.375 65.808594 153.214844 65.417969 153.042969 Z M 65.417969 153.042969 " fill-opacity="1" fill-rule="nonzero"/></g></g></g></g><g fill="#d9d9d9" fill-opacity="1"><g transform="translate(37.719939, 267.578576)"><g><path d="M 119.171875 -177.09375 C 121.242188 -177.09375 122.957031 -176.410156 124.3125 -175.046875 C 125.675781 -173.691406 126.359375 -171.976562 126.359375 -169.90625 L 126.359375 -7.171875 C 126.359375 -5.265625 125.640625 -3.59375 124.203125 -2.15625 C 122.765625 -0.71875 121.085938 0 119.171875 0 C 117.097656 0 115.382812 -0.71875 114.03125 -2.15625 C 112.675781 -3.59375 112 -5.265625 112 -7.171875 L 112 -35.65625 L 116.0625 -39.015625 C 116.0625 -34.546875 114.863281 -29.875 112.46875 -25 C 110.082031 -20.132812 106.691406 -15.628906 102.296875 -11.484375 C 97.910156 -7.335938 92.804688 -3.988281 86.984375 -1.4375 C 81.160156 1.113281 74.898438 2.390625 68.203125 2.390625 C 57.515625 2.390625 47.898438 -0.398438 39.359375 -5.984375 C 30.828125 -11.566406 24.085938 -19.144531 19.140625 -28.71875 C 14.191406 -38.289062 11.71875 -49.21875 11.71875 -61.5 C 11.71875 -73.625 14.191406 -84.507812 19.140625 -94.15625 C 24.085938 -103.8125 30.789062 -111.390625 39.25 -116.890625 C 47.707031 -122.398438 57.28125 -125.15625 67.96875 -125.15625 C 74.507812 -125.15625 80.726562 -123.957031 86.625 -121.5625 C 92.53125 -119.175781 97.753906 -115.90625 102.296875 -111.75 C 106.847656 -107.601562 110.441406 -102.859375 113.078125 -97.515625 C 115.710938 -92.171875 117.03125 -86.628906 117.03125 -80.890625 L 112 -84.484375 L 112 -169.90625 C 112 -171.820312 112.675781 -173.5 114.03125 -174.9375 C 115.382812 -176.375 117.097656 -177.09375 119.171875 -177.09375 Z M 69.40625 -11.015625 C 78.019531 -11.015625 85.554688 -13.207031 92.015625 -17.59375 C 98.472656 -21.976562 103.578125 -27.957031 107.328125 -35.53125 C 111.078125 -43.113281 112.953125 -51.769531 112.953125 -61.5 C 112.953125 -71.070312 111.078125 -79.644531 107.328125 -87.21875 C 103.578125 -94.800781 98.429688 -100.785156 91.890625 -105.171875 C 85.347656 -109.566406 77.851562 -111.765625 69.40625 -111.765625 C 61.101562 -111.765625 53.640625 -109.566406 47.015625 -105.171875 C 40.398438 -100.785156 35.21875 -94.800781 31.46875 -87.21875 C 27.71875 -79.644531 25.84375 -71.070312 25.84375 -61.5 C 25.84375 -51.925781 27.71875 -43.3125 31.46875 -35.65625 C 35.21875 -28 40.398438 -21.976562 47.015625 -17.59375 C 53.640625 -13.207031 61.101562 -11.015625 69.40625 -11.015625 Z M 69.40625 -11.015625 "/></g></g></g><g fill="#d9d9d9" fill-opacity="1"><g transform="translate(140.595919, 269.45319)"><g><path d="M 31.515625 -177.890625 C 32.703125 -177.890625 33.929688 -177.632812 35.203125 -177.125 C 36.472656 -176.625 37.53125 -175.78125 38.375 -174.59375 L 108.515625 -69.375 L 101.65625 -69.640625 L 172.046875 -174.59375 C 173.910156 -177.132812 176.203125 -178.234375 178.921875 -177.890625 C 180.953125 -177.890625 182.6875 -177.171875 184.125 -175.734375 C 185.5625 -174.296875 186.28125 -172.476562 186.28125 -170.28125 L 186.28125 -7.625 C 186.28125 -5.59375 185.515625 -3.8125 183.984375 -2.28125 C 182.460938 -0.757812 180.601562 0 178.40625 0 C 176.03125 0 174.082031 -0.757812 172.5625 -2.28125 C 171.039062 -3.8125 170.28125 -5.59375 170.28125 -7.625 L 170.28125 -154.765625 L 174.84375 -154.265625 L 110.546875 -56.921875 C 110.035156 -55.910156 109.269531 -55.109375 108.25 -54.515625 C 107.238281 -53.921875 106.054688 -53.707031 104.703125 -53.875 C 103.515625 -53.707031 102.367188 -53.921875 101.265625 -54.515625 C 100.171875 -55.109375 99.285156 -55.910156 98.609375 -56.921875 L 34.0625 -155.28125 L 38.890625 -158.578125 L 38.890625 -7.625 C 38.890625 -5.59375 38.164062 -3.8125 36.71875 -2.28125 C 35.28125 -0.757812 33.460938 0 31.265625 0 C 29.054688 0 27.273438 -0.757812 25.921875 -2.28125 C 24.566406 -3.8125 23.890625 -5.59375 23.890625 -7.625 L 23.890625 -170.28125 C 23.890625 -172.3125 24.609375 -174.085938 26.046875 -175.609375 C 27.484375 -177.128906 29.304688 -177.890625 31.515625 -177.890625 Z M 31.515625 -177.890625 "/></g></g></g></svg>